G04 #@! TF.FileFunction,Copper,L1,Top,Signal*
%FSLAX46Y46*%
G04 Gerber Fmt 4.6, Leading zero omitted, Abs format (unit mm)*
G04 Created by KiCad (PCBNEW 4.0.5) date 04/29/17 21:11:23*
%MOMM*%
%LPD*%
G01*
G04 APERTURE LIST*
%ADD10C,0.100000*%
%ADD11R,1.700000X1.700000*%
%ADD12O,1.700000X1.700000*%
%ADD13C,1.400000*%
%ADD14O,1.400000X1.400000*%
%ADD15C,1.524000*%
%ADD16C,0.500000*%
%ADD17C,0.250000*%
%ADD18C,1.000000*%
G04 APERTURE END LIST*
D10*
D11*
X171450000Y-132080000D03*
D12*
X171450000Y-134620000D03*
X171450000Y-137160000D03*
X171450000Y-139700000D03*
D11*
X219075000Y-102235000D03*
D12*
X219075000Y-104775000D03*
D11*
X219710000Y-131445000D03*
D12*
X219710000Y-133985000D03*
X219710000Y-136525000D03*
X219710000Y-139065000D03*
D11*
X172085000Y-102235000D03*
D12*
X172085000Y-104775000D03*
D13*
X186055000Y-132080000D03*
D14*
X186055000Y-139700000D03*
D13*
X179705000Y-132080000D03*
D14*
X179705000Y-139700000D03*
D13*
X182880000Y-132080000D03*
D14*
X182880000Y-139700000D03*
D15*
X180340000Y-123190000D03*
X182880000Y-123190000D03*
X185420000Y-123190000D03*
X190500000Y-123190000D03*
X193040000Y-123190000D03*
X195580000Y-123190000D03*
X198120000Y-123190000D03*
X200660000Y-123190000D03*
X203200000Y-123190000D03*
X205740000Y-123190000D03*
X208280000Y-123190000D03*
X187960000Y-123190000D03*
X208280000Y-107950000D03*
X205740000Y-107950000D03*
X203200000Y-107950000D03*
X200660000Y-107950000D03*
X198120000Y-107950000D03*
X195580000Y-107950000D03*
X193040000Y-107950000D03*
X190500000Y-107950000D03*
X187960000Y-107950000D03*
X185420000Y-107950000D03*
X182880000Y-107950000D03*
X180340000Y-107950000D03*
X196850000Y-120650000D03*
X199390000Y-120650000D03*
X190500000Y-133350000D03*
X193040000Y-133350000D03*
X195580000Y-133350000D03*
X198120000Y-133350000D03*
X200660000Y-133350000D03*
X203200000Y-133350000D03*
X205740000Y-133350000D03*
X210820000Y-133350000D03*
X208280000Y-133350000D03*
X213360000Y-133350000D03*
D16*
X172085000Y-104775000D02*
X174625000Y-104775000D01*
X174625000Y-104775000D02*
X176784000Y-106934000D01*
X176784000Y-106934000D02*
X176784000Y-111760000D01*
X182245000Y-111760000D02*
X180975000Y-111760000D01*
X171450000Y-114935000D02*
X174625000Y-111760000D01*
X174625000Y-111760000D02*
X176784000Y-111760000D01*
X176784000Y-111760000D02*
X180975000Y-111760000D01*
X171450000Y-114935000D02*
X171450000Y-132080000D01*
X205740000Y-114935000D02*
X205740000Y-123190000D01*
X202565000Y-111760000D02*
X205740000Y-114935000D01*
X182245000Y-111760000D02*
X202565000Y-111760000D01*
X219710000Y-139065000D02*
X219710000Y-142875000D01*
X221615000Y-144780000D02*
X223520000Y-144780000D01*
X219710000Y-142875000D02*
X221615000Y-144780000D01*
X219710000Y-136525000D02*
X221615000Y-136525000D01*
X175260000Y-144145000D02*
X175260000Y-134620000D01*
X178435000Y-147320000D02*
X175260000Y-144145000D01*
X222885000Y-147320000D02*
X178435000Y-147320000D01*
X223520000Y-146685000D02*
X222885000Y-147320000D01*
X223520000Y-138430000D02*
X223520000Y-144780000D01*
X223520000Y-144780000D02*
X223520000Y-146685000D01*
X221615000Y-136525000D02*
X223520000Y-138430000D01*
X190500000Y-133350000D02*
X190500000Y-130175000D01*
X182880000Y-132080000D02*
X179705000Y-132080000D01*
X179705000Y-132080000D02*
X177165000Y-134620000D01*
X177165000Y-134620000D02*
X175260000Y-134620000D01*
X175260000Y-134620000D02*
X171450000Y-134620000D01*
X186055000Y-132080000D02*
X182880000Y-132080000D01*
X200660000Y-123190000D02*
X200660000Y-128270000D01*
X187960000Y-130175000D02*
X186055000Y-132080000D01*
X198755000Y-130175000D02*
X190500000Y-130175000D01*
X190500000Y-130175000D02*
X187960000Y-130175000D01*
X200660000Y-128270000D02*
X198755000Y-130175000D01*
D17*
X219075000Y-102235000D02*
X215900000Y-102235000D01*
X205740000Y-130810000D02*
X205740000Y-133350000D01*
X212725000Y-123825000D02*
X205740000Y-130810000D01*
X212725000Y-105410000D02*
X212725000Y-123825000D01*
X215900000Y-102235000D02*
X212725000Y-105410000D01*
D18*
X172085000Y-102235000D02*
X208915000Y-102235000D01*
X210820000Y-120650000D02*
X208280000Y-123190000D01*
X210820000Y-104140000D02*
X210820000Y-120650000D01*
X208915000Y-102235000D02*
X210820000Y-104140000D01*
D17*
X186055000Y-139700000D02*
X186055000Y-141605000D01*
X208280000Y-140970000D02*
X208280000Y-133350000D01*
X207010000Y-142240000D02*
X208280000Y-140970000D01*
X186690000Y-142240000D02*
X207010000Y-142240000D01*
X186055000Y-141605000D02*
X186690000Y-142240000D01*
X179705000Y-139700000D02*
X179705000Y-144145000D01*
X213360000Y-142240000D02*
X213360000Y-133350000D01*
X210820000Y-144780000D02*
X213360000Y-142240000D01*
X180340000Y-144780000D02*
X210820000Y-144780000D01*
X179705000Y-144145000D02*
X180340000Y-144780000D01*
X182880000Y-139700000D02*
X182880000Y-142875000D01*
X210820000Y-142240000D02*
X210820000Y-133350000D01*
X209550000Y-143510000D02*
X210820000Y-142240000D01*
X183515000Y-143510000D02*
X209550000Y-143510000D01*
X182880000Y-142875000D02*
X183515000Y-143510000D01*
M02*
