M48
;DRILL file {KiCad 4.0.5} date 04/29/17 21:13:18
;FORMAT={-:-/ absolute / metric / decimal}
FMAT,2
METRIC,TZ
T1C0.700
T2C1.000
%
G90
G05
M71
T1
X179.705Y-132.08
X179.705Y-139.7
X182.88Y-132.08
X182.88Y-139.7
X186.055Y-132.08
X186.055Y-139.7
T2
X171.45Y-132.08
X171.45Y-134.62
X171.45Y-137.16
X171.45Y-139.7
X172.085Y-102.235
X172.085Y-104.775
X180.34Y-107.95
X180.34Y-123.19
X182.88Y-107.95
X182.88Y-123.19
X185.42Y-107.95
X185.42Y-123.19
X187.96Y-107.95
X187.96Y-123.19
X190.5Y-107.95
X190.5Y-123.19
X190.5Y-133.35
X193.04Y-107.95
X193.04Y-123.19
X193.04Y-133.35
X195.58Y-107.95
X195.58Y-123.19
X195.58Y-133.35
X196.85Y-120.65
X198.12Y-107.95
X198.12Y-123.19
X198.12Y-133.35
X199.39Y-120.65
X200.66Y-107.95
X200.66Y-123.19
X200.66Y-133.35
X203.2Y-107.95
X203.2Y-123.19
X203.2Y-133.35
X205.74Y-107.95
X205.74Y-123.19
X205.74Y-133.35
X208.28Y-107.95
X208.28Y-123.19
X208.28Y-133.35
X210.82Y-133.35
X213.36Y-133.35
X219.075Y-102.235
X219.075Y-104.775
X219.71Y-131.445
X219.71Y-133.985
X219.71Y-136.525
X219.71Y-139.065
T0
M30
