G04 #@! TF.FileFunction,Soldermask,Top*
%FSLAX46Y46*%
G04 Gerber Fmt 4.6, Leading zero omitted, Abs format (unit mm)*
G04 Created by KiCad (PCBNEW 4.0.5) date 04/29/17 21:11:23*
%MOMM*%
%LPD*%
G01*
G04 APERTURE LIST*
%ADD10C,0.100000*%
%ADD11R,2.100000X2.100000*%
%ADD12O,2.100000X2.100000*%
%ADD13C,1.800000*%
%ADD14O,1.800000X1.800000*%
%ADD15C,1.924000*%
G04 APERTURE END LIST*
D10*
D11*
X171450000Y-132080000D03*
D12*
X171450000Y-134620000D03*
X171450000Y-137160000D03*
X171450000Y-139700000D03*
D11*
X219075000Y-102235000D03*
D12*
X219075000Y-104775000D03*
D11*
X219710000Y-131445000D03*
D12*
X219710000Y-133985000D03*
X219710000Y-136525000D03*
X219710000Y-139065000D03*
D11*
X172085000Y-102235000D03*
D12*
X172085000Y-104775000D03*
D13*
X186055000Y-132080000D03*
D14*
X186055000Y-139700000D03*
D13*
X179705000Y-132080000D03*
D14*
X179705000Y-139700000D03*
D13*
X182880000Y-132080000D03*
D14*
X182880000Y-139700000D03*
D15*
X180340000Y-123190000D03*
X182880000Y-123190000D03*
X185420000Y-123190000D03*
X190500000Y-123190000D03*
X193040000Y-123190000D03*
X195580000Y-123190000D03*
X198120000Y-123190000D03*
X200660000Y-123190000D03*
X203200000Y-123190000D03*
X205740000Y-123190000D03*
X208280000Y-123190000D03*
X187960000Y-123190000D03*
X208280000Y-107950000D03*
X205740000Y-107950000D03*
X203200000Y-107950000D03*
X200660000Y-107950000D03*
X198120000Y-107950000D03*
X195580000Y-107950000D03*
X193040000Y-107950000D03*
X190500000Y-107950000D03*
X187960000Y-107950000D03*
X185420000Y-107950000D03*
X182880000Y-107950000D03*
X180340000Y-107950000D03*
X196850000Y-120650000D03*
X199390000Y-120650000D03*
X190500000Y-133350000D03*
X193040000Y-133350000D03*
X195580000Y-133350000D03*
X198120000Y-133350000D03*
X200660000Y-133350000D03*
X203200000Y-133350000D03*
X205740000Y-133350000D03*
X210820000Y-133350000D03*
X208280000Y-133350000D03*
X213360000Y-133350000D03*
M02*
