G04 #@! TF.FileFunction,Copper,L2,Bot,Signal*
%FSLAX46Y46*%
G04 Gerber Fmt 4.6, Leading zero omitted, Abs format (unit mm)*
G04 Created by KiCad (PCBNEW 4.0.5) date 04/29/17 21:11:23*
%MOMM*%
%LPD*%
G01*
G04 APERTURE LIST*
%ADD10C,0.100000*%
%ADD11R,1.700000X1.700000*%
%ADD12O,1.700000X1.700000*%
%ADD13C,1.400000*%
%ADD14O,1.400000X1.400000*%
%ADD15C,1.524000*%
%ADD16C,0.250000*%
%ADD17C,0.500000*%
G04 APERTURE END LIST*
D10*
D11*
X171450000Y-132080000D03*
D12*
X171450000Y-134620000D03*
X171450000Y-137160000D03*
X171450000Y-139700000D03*
D11*
X219075000Y-102235000D03*
D12*
X219075000Y-104775000D03*
D11*
X219710000Y-131445000D03*
D12*
X219710000Y-133985000D03*
X219710000Y-136525000D03*
X219710000Y-139065000D03*
D11*
X172085000Y-102235000D03*
D12*
X172085000Y-104775000D03*
D13*
X186055000Y-132080000D03*
D14*
X186055000Y-139700000D03*
D13*
X179705000Y-132080000D03*
D14*
X179705000Y-139700000D03*
D13*
X182880000Y-132080000D03*
D14*
X182880000Y-139700000D03*
D15*
X180340000Y-123190000D03*
X182880000Y-123190000D03*
X185420000Y-123190000D03*
X190500000Y-123190000D03*
X193040000Y-123190000D03*
X195580000Y-123190000D03*
X198120000Y-123190000D03*
X200660000Y-123190000D03*
X203200000Y-123190000D03*
X205740000Y-123190000D03*
X208280000Y-123190000D03*
X187960000Y-123190000D03*
X208280000Y-107950000D03*
X205740000Y-107950000D03*
X203200000Y-107950000D03*
X200660000Y-107950000D03*
X198120000Y-107950000D03*
X195580000Y-107950000D03*
X193040000Y-107950000D03*
X190500000Y-107950000D03*
X187960000Y-107950000D03*
X185420000Y-107950000D03*
X182880000Y-107950000D03*
X180340000Y-107950000D03*
X196850000Y-120650000D03*
X199390000Y-120650000D03*
X190500000Y-133350000D03*
X193040000Y-133350000D03*
X195580000Y-133350000D03*
X198120000Y-133350000D03*
X200660000Y-133350000D03*
X203200000Y-133350000D03*
X205740000Y-133350000D03*
X210820000Y-133350000D03*
X208280000Y-133350000D03*
X213360000Y-133350000D03*
D16*
X193040000Y-133350000D02*
X193040000Y-133985000D01*
D17*
X193040000Y-133985000D02*
X194945000Y-135890000D01*
X194945000Y-135890000D02*
X201295000Y-135890000D01*
X201295000Y-135890000D02*
X201930000Y-135255000D01*
X201930000Y-135255000D02*
X201930000Y-132080000D01*
X201930000Y-132080000D02*
X207010000Y-127000000D01*
X219710000Y-131445000D02*
X219710000Y-125095000D01*
X219710000Y-125095000D02*
X217487500Y-122872500D01*
X219075000Y-104775000D02*
X219075000Y-121285000D01*
X205740000Y-125730000D02*
X205740000Y-123190000D01*
X207010000Y-127000000D02*
X205740000Y-125730000D01*
X213360000Y-127000000D02*
X207010000Y-127000000D01*
X219075000Y-121285000D02*
X217487500Y-122872500D01*
X217487500Y-122872500D02*
X213360000Y-127000000D01*
D16*
X171450000Y-137160000D02*
X167640000Y-137160000D01*
X167640000Y-137160000D02*
X166370000Y-135890000D01*
X166370000Y-135890000D02*
X166370000Y-127000000D01*
X166370000Y-127000000D02*
X171450000Y-121920000D01*
X171450000Y-121920000D02*
X198120000Y-121920000D01*
X198120000Y-121920000D02*
X199390000Y-120650000D01*
X199390000Y-120650000D02*
X199390000Y-127635000D01*
X195580000Y-131445000D02*
X195580000Y-133350000D01*
X199390000Y-127635000D02*
X195580000Y-131445000D01*
X171450000Y-139700000D02*
X168402000Y-139700000D01*
X192786000Y-120650000D02*
X196850000Y-120650000D01*
X191516000Y-119380000D02*
X192786000Y-120650000D01*
X170688000Y-119380000D02*
X191516000Y-119380000D01*
X164846000Y-125222000D02*
X170688000Y-119380000D01*
X164846000Y-136144000D02*
X164846000Y-125222000D01*
X168402000Y-139700000D02*
X164846000Y-136144000D01*
X196850000Y-120650000D02*
X196850000Y-119380000D01*
X196850000Y-119380000D02*
X196850000Y-118110000D01*
X204470000Y-127000000D02*
X198120000Y-133350000D01*
X204470000Y-119380000D02*
X204470000Y-127000000D01*
X202565000Y-117475000D02*
X204470000Y-119380000D01*
X197485000Y-117475000D02*
X202565000Y-117475000D01*
X196850000Y-118110000D02*
X197485000Y-117475000D01*
D17*
X219710000Y-133985000D02*
X215900000Y-133985000D01*
X187960000Y-135890000D02*
X187960000Y-123190000D01*
X189865000Y-137795000D02*
X187960000Y-135890000D01*
X212090000Y-137795000D02*
X189865000Y-137795000D01*
X215900000Y-133985000D02*
X212090000Y-137795000D01*
M02*
