G04 #@! TF.FileFunction,Legend,Top*
%FSLAX46Y46*%
G04 Gerber Fmt 4.6, Leading zero omitted, Abs format (unit mm)*
G04 Created by KiCad (PCBNEW 4.0.5) date 04/29/17 21:11:23*
%MOMM*%
%LPD*%
G01*
G04 APERTURE LIST*
%ADD10C,0.100000*%
%ADD11C,0.175000*%
%ADD12C,0.300000*%
%ADD13C,0.120000*%
%ADD14C,0.150000*%
G04 APERTURE END LIST*
D10*
D11*
X185611333Y-135473333D02*
X185611333Y-135073333D01*
X185611333Y-135273333D02*
X186311333Y-135273333D01*
X186211333Y-135206667D01*
X186144667Y-135140000D01*
X186111333Y-135073333D01*
X186311333Y-135906667D02*
X186311333Y-135973334D01*
X186278000Y-136040000D01*
X186244667Y-136073334D01*
X186178000Y-136106667D01*
X186044667Y-136140000D01*
X185878000Y-136140000D01*
X185744667Y-136106667D01*
X185678000Y-136073334D01*
X185644667Y-136040000D01*
X185611333Y-135973334D01*
X185611333Y-135906667D01*
X185644667Y-135840000D01*
X185678000Y-135806667D01*
X185744667Y-135773334D01*
X185878000Y-135740000D01*
X186044667Y-135740000D01*
X186178000Y-135773334D01*
X186244667Y-135806667D01*
X186278000Y-135840000D01*
X186311333Y-135906667D01*
X185611333Y-136440001D02*
X186311333Y-136440001D01*
X185878000Y-136506667D02*
X185611333Y-136706667D01*
X186078000Y-136706667D02*
X185811333Y-136440001D01*
X182563333Y-135473333D02*
X182563333Y-135073333D01*
X182563333Y-135273333D02*
X183263333Y-135273333D01*
X183163333Y-135206667D01*
X183096667Y-135140000D01*
X183063333Y-135073333D01*
X183263333Y-135906667D02*
X183263333Y-135973334D01*
X183230000Y-136040000D01*
X183196667Y-136073334D01*
X183130000Y-136106667D01*
X182996667Y-136140000D01*
X182830000Y-136140000D01*
X182696667Y-136106667D01*
X182630000Y-136073334D01*
X182596667Y-136040000D01*
X182563333Y-135973334D01*
X182563333Y-135906667D01*
X182596667Y-135840000D01*
X182630000Y-135806667D01*
X182696667Y-135773334D01*
X182830000Y-135740000D01*
X182996667Y-135740000D01*
X183130000Y-135773334D01*
X183196667Y-135806667D01*
X183230000Y-135840000D01*
X183263333Y-135906667D01*
X182563333Y-136440001D02*
X183263333Y-136440001D01*
X182830000Y-136506667D02*
X182563333Y-136706667D01*
X183030000Y-136706667D02*
X182763333Y-136440001D01*
X179261333Y-135473333D02*
X179261333Y-135073333D01*
X179261333Y-135273333D02*
X179961333Y-135273333D01*
X179861333Y-135206667D01*
X179794667Y-135140000D01*
X179761333Y-135073333D01*
X179961333Y-135906667D02*
X179961333Y-135973334D01*
X179928000Y-136040000D01*
X179894667Y-136073334D01*
X179828000Y-136106667D01*
X179694667Y-136140000D01*
X179528000Y-136140000D01*
X179394667Y-136106667D01*
X179328000Y-136073334D01*
X179294667Y-136040000D01*
X179261333Y-135973334D01*
X179261333Y-135906667D01*
X179294667Y-135840000D01*
X179328000Y-135806667D01*
X179394667Y-135773334D01*
X179528000Y-135740000D01*
X179694667Y-135740000D01*
X179828000Y-135773334D01*
X179894667Y-135806667D01*
X179928000Y-135840000D01*
X179961333Y-135906667D01*
X179261333Y-136440001D02*
X179961333Y-136440001D01*
X179528000Y-136506667D02*
X179261333Y-136706667D01*
X179728000Y-136706667D02*
X179461333Y-136440001D01*
D12*
X173926572Y-101961143D02*
X175069429Y-101961143D01*
X174498000Y-102532571D02*
X174498000Y-101389714D01*
X174351143Y-106235428D02*
X174351143Y-105092571D01*
X215963572Y-101707143D02*
X217106429Y-101707143D01*
X216535000Y-102278571D02*
X216535000Y-101135714D01*
X216642143Y-105981428D02*
X216642143Y-104838571D01*
X168231429Y-101505000D02*
X169731429Y-101505000D01*
X169731429Y-102076428D01*
X169660000Y-102219286D01*
X169588571Y-102290714D01*
X169445714Y-102362143D01*
X169231429Y-102362143D01*
X169088571Y-102290714D01*
X169017143Y-102219286D01*
X168945714Y-102076428D01*
X168945714Y-101505000D01*
X169731429Y-102862143D02*
X168231429Y-103219286D01*
X169302857Y-103505000D01*
X168231429Y-103790714D01*
X169731429Y-104147857D01*
X168231429Y-105576429D02*
X168945714Y-105076429D01*
X168231429Y-104719286D02*
X169731429Y-104719286D01*
X169731429Y-105290714D01*
X169660000Y-105433572D01*
X169588571Y-105505000D01*
X169445714Y-105576429D01*
X169231429Y-105576429D01*
X169088571Y-105505000D01*
X169017143Y-105433572D01*
X168945714Y-105290714D01*
X168945714Y-104719286D01*
X169096429Y-129675715D02*
X169096429Y-129961429D01*
X169025000Y-130104287D01*
X168882143Y-130247144D01*
X168596429Y-130318572D01*
X168096429Y-130318572D01*
X167810714Y-130247144D01*
X167667857Y-130104287D01*
X167596429Y-129961429D01*
X167596429Y-129675715D01*
X167667857Y-129532858D01*
X167810714Y-129390001D01*
X168096429Y-129318572D01*
X168596429Y-129318572D01*
X168882143Y-129390001D01*
X169025000Y-129532858D01*
X169096429Y-129675715D01*
X167596429Y-131175716D02*
X167667857Y-131032858D01*
X167810714Y-130961430D01*
X169096429Y-130961430D01*
X167667857Y-132318572D02*
X167596429Y-132175715D01*
X167596429Y-131890001D01*
X167667857Y-131747144D01*
X167810714Y-131675715D01*
X168382143Y-131675715D01*
X168525000Y-131747144D01*
X168596429Y-131890001D01*
X168596429Y-132175715D01*
X168525000Y-132318572D01*
X168382143Y-132390001D01*
X168239286Y-132390001D01*
X168096429Y-131675715D01*
X167596429Y-133675715D02*
X169096429Y-133675715D01*
X167667857Y-133675715D02*
X167596429Y-133532858D01*
X167596429Y-133247144D01*
X167667857Y-133104286D01*
X167739286Y-133032858D01*
X167882143Y-132961429D01*
X168310714Y-132961429D01*
X168453571Y-133032858D01*
X168525000Y-133104286D01*
X168596429Y-133247144D01*
X168596429Y-133532858D01*
X168525000Y-133675715D01*
X167667857Y-135461429D02*
X167596429Y-135675715D01*
X167596429Y-136032858D01*
X167667857Y-136175715D01*
X167739286Y-136247144D01*
X167882143Y-136318572D01*
X168025000Y-136318572D01*
X168167857Y-136247144D01*
X168239286Y-136175715D01*
X168310714Y-136032858D01*
X168382143Y-135747144D01*
X168453571Y-135604286D01*
X168525000Y-135532858D01*
X168667857Y-135461429D01*
X168810714Y-135461429D01*
X168953571Y-135532858D01*
X169025000Y-135604286D01*
X169096429Y-135747144D01*
X169096429Y-136104286D01*
X169025000Y-136318572D01*
X167667857Y-137604286D02*
X167596429Y-137461429D01*
X167596429Y-137175715D01*
X167667857Y-137032857D01*
X167739286Y-136961429D01*
X167882143Y-136890000D01*
X168310714Y-136890000D01*
X168453571Y-136961429D01*
X168525000Y-137032857D01*
X168596429Y-137175715D01*
X168596429Y-137461429D01*
X168525000Y-137604286D01*
X167596429Y-138247143D02*
X168596429Y-138247143D01*
X168310714Y-138247143D02*
X168453571Y-138318571D01*
X168525000Y-138390000D01*
X168596429Y-138532857D01*
X168596429Y-138675714D01*
X167667857Y-139747142D02*
X167596429Y-139604285D01*
X167596429Y-139318571D01*
X167667857Y-139175714D01*
X167810714Y-139104285D01*
X168382143Y-139104285D01*
X168525000Y-139175714D01*
X168596429Y-139318571D01*
X168596429Y-139604285D01*
X168525000Y-139747142D01*
X168382143Y-139818571D01*
X168239286Y-139818571D01*
X168096429Y-139104285D01*
X167667857Y-141032856D02*
X167596429Y-140889999D01*
X167596429Y-140604285D01*
X167667857Y-140461428D01*
X167810714Y-140389999D01*
X168382143Y-140389999D01*
X168525000Y-140461428D01*
X168596429Y-140604285D01*
X168596429Y-140889999D01*
X168525000Y-141032856D01*
X168382143Y-141104285D01*
X168239286Y-141104285D01*
X168096429Y-140389999D01*
X168596429Y-141747142D02*
X167596429Y-141747142D01*
X168453571Y-141747142D02*
X168525000Y-141818570D01*
X168596429Y-141961428D01*
X168596429Y-142175713D01*
X168525000Y-142318570D01*
X168382143Y-142389999D01*
X167596429Y-142389999D01*
X223420714Y-141068571D02*
X223492143Y-141140000D01*
X223563571Y-141354286D01*
X223563571Y-141497143D01*
X223492143Y-141711428D01*
X223349286Y-141854286D01*
X223206429Y-141925714D01*
X222920714Y-141997143D01*
X222706429Y-141997143D01*
X222420714Y-141925714D01*
X222277857Y-141854286D01*
X222135000Y-141711428D01*
X222063571Y-141497143D01*
X222063571Y-141354286D01*
X222135000Y-141140000D01*
X222206429Y-141068571D01*
X223563571Y-139782857D02*
X222777857Y-139782857D01*
X222635000Y-139854286D01*
X222563571Y-139997143D01*
X222563571Y-140282857D01*
X222635000Y-140425714D01*
X223492143Y-139782857D02*
X223563571Y-139925714D01*
X223563571Y-140282857D01*
X223492143Y-140425714D01*
X223349286Y-140497143D01*
X223206429Y-140497143D01*
X223063571Y-140425714D01*
X222992143Y-140282857D01*
X222992143Y-139925714D01*
X222920714Y-139782857D01*
X223563571Y-138854285D02*
X223492143Y-138997143D01*
X223349286Y-139068571D01*
X222063571Y-139068571D01*
X223420714Y-138282857D02*
X223492143Y-138211429D01*
X223563571Y-138282857D01*
X223492143Y-138354286D01*
X223420714Y-138282857D01*
X223563571Y-138282857D01*
X222777857Y-135925714D02*
X222849286Y-135711428D01*
X222920714Y-135640000D01*
X223063571Y-135568571D01*
X223277857Y-135568571D01*
X223420714Y-135640000D01*
X223492143Y-135711428D01*
X223563571Y-135854286D01*
X223563571Y-136425714D01*
X222063571Y-136425714D01*
X222063571Y-135925714D01*
X222135000Y-135782857D01*
X222206429Y-135711428D01*
X222349286Y-135640000D01*
X222492143Y-135640000D01*
X222635000Y-135711428D01*
X222706429Y-135782857D01*
X222777857Y-135925714D01*
X222777857Y-136425714D01*
X222563571Y-134282857D02*
X223563571Y-134282857D01*
X222563571Y-134925714D02*
X223349286Y-134925714D01*
X223492143Y-134854286D01*
X223563571Y-134711428D01*
X223563571Y-134497143D01*
X223492143Y-134354286D01*
X223420714Y-134282857D01*
X222563571Y-133782857D02*
X222563571Y-133211428D01*
X222063571Y-133568571D02*
X223349286Y-133568571D01*
X223492143Y-133497143D01*
X223563571Y-133354285D01*
X223563571Y-133211428D01*
X222563571Y-132925714D02*
X222563571Y-132354285D01*
X222063571Y-132711428D02*
X223349286Y-132711428D01*
X223492143Y-132640000D01*
X223563571Y-132497142D01*
X223563571Y-132354285D01*
X223563571Y-131639999D02*
X223492143Y-131782857D01*
X223420714Y-131854285D01*
X223277857Y-131925714D01*
X222849286Y-131925714D01*
X222706429Y-131854285D01*
X222635000Y-131782857D01*
X222563571Y-131639999D01*
X222563571Y-131425714D01*
X222635000Y-131282857D01*
X222706429Y-131211428D01*
X222849286Y-131139999D01*
X223277857Y-131139999D01*
X223420714Y-131211428D01*
X223492143Y-131282857D01*
X223563571Y-131425714D01*
X223563571Y-131639999D01*
X222563571Y-130497142D02*
X223563571Y-130497142D01*
X222706429Y-130497142D02*
X222635000Y-130425714D01*
X222563571Y-130282856D01*
X222563571Y-130068571D01*
X222635000Y-129925714D01*
X222777857Y-129854285D01*
X223563571Y-129854285D01*
X221428571Y-107112142D02*
X221428571Y-106826428D01*
X221500000Y-106683570D01*
X221642857Y-106540713D01*
X221928571Y-106469285D01*
X222428571Y-106469285D01*
X222714286Y-106540713D01*
X222857143Y-106683570D01*
X222928571Y-106826428D01*
X222928571Y-107112142D01*
X222857143Y-107254999D01*
X222714286Y-107397856D01*
X222428571Y-107469285D01*
X221928571Y-107469285D01*
X221642857Y-107397856D01*
X221500000Y-107254999D01*
X221428571Y-107112142D01*
X221571429Y-105897856D02*
X221500000Y-105826427D01*
X221428571Y-105683570D01*
X221428571Y-105326427D01*
X221500000Y-105183570D01*
X221571429Y-105112141D01*
X221714286Y-105040713D01*
X221857143Y-105040713D01*
X222071429Y-105112141D01*
X222928571Y-105969284D01*
X222928571Y-105040713D01*
X222785714Y-102397856D02*
X222857143Y-102469285D01*
X222928571Y-102683571D01*
X222928571Y-102826428D01*
X222857143Y-103040713D01*
X222714286Y-103183571D01*
X222571429Y-103254999D01*
X222285714Y-103326428D01*
X222071429Y-103326428D01*
X221785714Y-103254999D01*
X221642857Y-103183571D01*
X221500000Y-103040713D01*
X221428571Y-102826428D01*
X221428571Y-102683571D01*
X221500000Y-102469285D01*
X221571429Y-102397856D01*
X222857143Y-101183571D02*
X222928571Y-101326428D01*
X222928571Y-101612142D01*
X222857143Y-101754999D01*
X222714286Y-101826428D01*
X222142857Y-101826428D01*
X222000000Y-101754999D01*
X221928571Y-101612142D01*
X221928571Y-101326428D01*
X222000000Y-101183571D01*
X222142857Y-101112142D01*
X222285714Y-101112142D01*
X222428571Y-101826428D01*
X222928571Y-100254999D02*
X222857143Y-100397857D01*
X222714286Y-100469285D01*
X221428571Y-100469285D01*
X222928571Y-99469285D02*
X222857143Y-99612143D01*
X222714286Y-99683571D01*
X221428571Y-99683571D01*
D13*
X170120000Y-133350000D02*
X170120000Y-141030000D01*
X170120000Y-141030000D02*
X172780000Y-141030000D01*
X172780000Y-141030000D02*
X172780000Y-133350000D01*
X172780000Y-133350000D02*
X170120000Y-133350000D01*
X170120000Y-132080000D02*
X170120000Y-130750000D01*
X170120000Y-130750000D02*
X171450000Y-130750000D01*
X217745000Y-103505000D02*
X217745000Y-106105000D01*
X217745000Y-106105000D02*
X220405000Y-106105000D01*
X220405000Y-106105000D02*
X220405000Y-103505000D01*
X220405000Y-103505000D02*
X217745000Y-103505000D01*
X217745000Y-102235000D02*
X217745000Y-100905000D01*
X217745000Y-100905000D02*
X219075000Y-100905000D01*
X218380000Y-132715000D02*
X218380000Y-140395000D01*
X218380000Y-140395000D02*
X221040000Y-140395000D01*
X221040000Y-140395000D02*
X221040000Y-132715000D01*
X221040000Y-132715000D02*
X218380000Y-132715000D01*
X218380000Y-131445000D02*
X218380000Y-130115000D01*
X218380000Y-130115000D02*
X219710000Y-130115000D01*
X170755000Y-103505000D02*
X170755000Y-106105000D01*
X170755000Y-106105000D02*
X173415000Y-106105000D01*
X173415000Y-106105000D02*
X173415000Y-103505000D01*
X173415000Y-103505000D02*
X170755000Y-103505000D01*
X170755000Y-102235000D02*
X170755000Y-100905000D01*
X170755000Y-100905000D02*
X172085000Y-100905000D01*
X186915000Y-134030000D02*
X185195000Y-134030000D01*
X185195000Y-134030000D02*
X185195000Y-137750000D01*
X185195000Y-137750000D02*
X186915000Y-137750000D01*
X186915000Y-137750000D02*
X186915000Y-134030000D01*
X186055000Y-132960000D02*
X186055000Y-134030000D01*
X186055000Y-138820000D02*
X186055000Y-137750000D01*
X180565000Y-134030000D02*
X178845000Y-134030000D01*
X178845000Y-134030000D02*
X178845000Y-137750000D01*
X178845000Y-137750000D02*
X180565000Y-137750000D01*
X180565000Y-137750000D02*
X180565000Y-134030000D01*
X179705000Y-132960000D02*
X179705000Y-134030000D01*
X179705000Y-138820000D02*
X179705000Y-137750000D01*
X183740000Y-134030000D02*
X182020000Y-134030000D01*
X182020000Y-134030000D02*
X182020000Y-137750000D01*
X182020000Y-137750000D02*
X183740000Y-137750000D01*
X183740000Y-137750000D02*
X183740000Y-134030000D01*
X182880000Y-132960000D02*
X182880000Y-134030000D01*
X182880000Y-138820000D02*
X182880000Y-137750000D01*
D14*
X177800000Y-102870000D02*
X177800000Y-128270000D01*
X210820000Y-102870000D02*
X210820000Y-128270000D01*
X177800000Y-102870000D02*
X210820000Y-102870000D01*
X177800000Y-128270000D02*
X210820000Y-128270000D01*
X187960000Y-130810000D02*
X187960000Y-140970000D01*
X187960000Y-140970000D02*
X215900000Y-140970000D01*
X215900000Y-140970000D02*
X215900000Y-130810000D01*
X215900000Y-130810000D02*
X187960000Y-130810000D01*
X170711905Y-130202381D02*
X170711905Y-129202381D01*
X171092858Y-129202381D01*
X171188096Y-129250000D01*
X171235715Y-129297619D01*
X171283334Y-129392857D01*
X171283334Y-129535714D01*
X171235715Y-129630952D01*
X171188096Y-129678571D01*
X171092858Y-129726190D01*
X170711905Y-129726190D01*
X172235715Y-130202381D02*
X171664286Y-130202381D01*
X171950000Y-130202381D02*
X171950000Y-129202381D01*
X171854762Y-129345238D01*
X171759524Y-129440476D01*
X171664286Y-129488095D01*
X218336905Y-100357381D02*
X218336905Y-99357381D01*
X218717858Y-99357381D01*
X218813096Y-99405000D01*
X218860715Y-99452619D01*
X218908334Y-99547857D01*
X218908334Y-99690714D01*
X218860715Y-99785952D01*
X218813096Y-99833571D01*
X218717858Y-99881190D01*
X218336905Y-99881190D01*
X219289286Y-99452619D02*
X219336905Y-99405000D01*
X219432143Y-99357381D01*
X219670239Y-99357381D01*
X219765477Y-99405000D01*
X219813096Y-99452619D01*
X219860715Y-99547857D01*
X219860715Y-99643095D01*
X219813096Y-99785952D01*
X219241667Y-100357381D01*
X219860715Y-100357381D01*
X218971905Y-129567381D02*
X218971905Y-128567381D01*
X219352858Y-128567381D01*
X219448096Y-128615000D01*
X219495715Y-128662619D01*
X219543334Y-128757857D01*
X219543334Y-128900714D01*
X219495715Y-128995952D01*
X219448096Y-129043571D01*
X219352858Y-129091190D01*
X218971905Y-129091190D01*
X219876667Y-128567381D02*
X220495715Y-128567381D01*
X220162381Y-128948333D01*
X220305239Y-128948333D01*
X220400477Y-128995952D01*
X220448096Y-129043571D01*
X220495715Y-129138810D01*
X220495715Y-129376905D01*
X220448096Y-129472143D01*
X220400477Y-129519762D01*
X220305239Y-129567381D01*
X220019524Y-129567381D01*
X219924286Y-129519762D01*
X219876667Y-129472143D01*
X171346905Y-100357381D02*
X171346905Y-99357381D01*
X171727858Y-99357381D01*
X171823096Y-99405000D01*
X171870715Y-99452619D01*
X171918334Y-99547857D01*
X171918334Y-99690714D01*
X171870715Y-99785952D01*
X171823096Y-99833571D01*
X171727858Y-99881190D01*
X171346905Y-99881190D01*
X172775477Y-99690714D02*
X172775477Y-100357381D01*
X172537381Y-99309762D02*
X172299286Y-100024048D01*
X172918334Y-100024048D01*
X188367381Y-136056666D02*
X187891190Y-136390000D01*
X188367381Y-136628095D02*
X187367381Y-136628095D01*
X187367381Y-136247142D01*
X187415000Y-136151904D01*
X187462619Y-136104285D01*
X187557857Y-136056666D01*
X187700714Y-136056666D01*
X187795952Y-136104285D01*
X187843571Y-136151904D01*
X187891190Y-136247142D01*
X187891190Y-136628095D01*
X188367381Y-135104285D02*
X188367381Y-135675714D01*
X188367381Y-135390000D02*
X187367381Y-135390000D01*
X187510238Y-135485238D01*
X187605476Y-135580476D01*
X187653095Y-135675714D01*
X182017381Y-136056666D02*
X181541190Y-136390000D01*
X182017381Y-136628095D02*
X181017381Y-136628095D01*
X181017381Y-136247142D01*
X181065000Y-136151904D01*
X181112619Y-136104285D01*
X181207857Y-136056666D01*
X181350714Y-136056666D01*
X181445952Y-136104285D01*
X181493571Y-136151904D01*
X181541190Y-136247142D01*
X181541190Y-136628095D01*
X181112619Y-135675714D02*
X181065000Y-135628095D01*
X181017381Y-135532857D01*
X181017381Y-135294761D01*
X181065000Y-135199523D01*
X181112619Y-135151904D01*
X181207857Y-135104285D01*
X181303095Y-135104285D01*
X181445952Y-135151904D01*
X182017381Y-135723333D01*
X182017381Y-135104285D01*
X185192381Y-136056666D02*
X184716190Y-136390000D01*
X185192381Y-136628095D02*
X184192381Y-136628095D01*
X184192381Y-136247142D01*
X184240000Y-136151904D01*
X184287619Y-136104285D01*
X184382857Y-136056666D01*
X184525714Y-136056666D01*
X184620952Y-136104285D01*
X184668571Y-136151904D01*
X184716190Y-136247142D01*
X184716190Y-136628095D01*
X184192381Y-135723333D02*
X184192381Y-135104285D01*
X184573333Y-135437619D01*
X184573333Y-135294761D01*
X184620952Y-135199523D01*
X184668571Y-135151904D01*
X184763810Y-135104285D01*
X185001905Y-135104285D01*
X185097143Y-135151904D01*
X185144762Y-135199523D01*
X185192381Y-135294761D01*
X185192381Y-135580476D01*
X185144762Y-135675714D01*
X185097143Y-135723333D01*
X191008095Y-128992381D02*
X191008095Y-129801905D01*
X191055714Y-129897143D01*
X191103333Y-129944762D01*
X191198571Y-129992381D01*
X191389048Y-129992381D01*
X191484286Y-129944762D01*
X191531905Y-129897143D01*
X191579524Y-129801905D01*
X191579524Y-128992381D01*
X192008095Y-129087619D02*
X192055714Y-129040000D01*
X192150952Y-128992381D01*
X192389048Y-128992381D01*
X192484286Y-129040000D01*
X192531905Y-129087619D01*
X192579524Y-129182857D01*
X192579524Y-129278095D01*
X192531905Y-129420952D01*
X191960476Y-129992381D01*
X192579524Y-129992381D01*
X199556667Y-118824286D02*
X199556667Y-118348095D01*
X199842381Y-118919524D02*
X198842381Y-118586191D01*
X199842381Y-118252857D01*
X198842381Y-117443333D02*
X198842381Y-117919524D01*
X199318571Y-117967143D01*
X199270952Y-117919524D01*
X199223333Y-117824286D01*
X199223333Y-117586190D01*
X199270952Y-117490952D01*
X199318571Y-117443333D01*
X199413810Y-117395714D01*
X199651905Y-117395714D01*
X199747143Y-117443333D01*
X199794762Y-117490952D01*
X199842381Y-117586190D01*
X199842381Y-117824286D01*
X199794762Y-117919524D01*
X199747143Y-117967143D01*
X197016667Y-118824286D02*
X197016667Y-118348095D01*
X197302381Y-118919524D02*
X196302381Y-118586191D01*
X197302381Y-118252857D01*
X196635714Y-117490952D02*
X197302381Y-117490952D01*
X196254762Y-117729048D02*
X196969048Y-117967143D01*
X196969048Y-117348095D01*
X180792381Y-105600476D02*
X180792381Y-105410000D01*
X180744762Y-105314761D01*
X180697143Y-105267142D01*
X180554286Y-105171904D01*
X180363810Y-105124285D01*
X179982857Y-105124285D01*
X179887619Y-105171904D01*
X179840000Y-105219523D01*
X179792381Y-105314761D01*
X179792381Y-105505238D01*
X179840000Y-105600476D01*
X179887619Y-105648095D01*
X179982857Y-105695714D01*
X180220952Y-105695714D01*
X180316190Y-105648095D01*
X180363810Y-105600476D01*
X180411429Y-105505238D01*
X180411429Y-105314761D01*
X180363810Y-105219523D01*
X180316190Y-105171904D01*
X180220952Y-105124285D01*
X182760952Y-105505238D02*
X182713333Y-105600476D01*
X182665714Y-105648095D01*
X182570476Y-105695714D01*
X182522857Y-105695714D01*
X182427619Y-105648095D01*
X182380000Y-105600476D01*
X182332381Y-105505238D01*
X182332381Y-105314761D01*
X182380000Y-105219523D01*
X182427619Y-105171904D01*
X182522857Y-105124285D01*
X182570476Y-105124285D01*
X182665714Y-105171904D01*
X182713333Y-105219523D01*
X182760952Y-105314761D01*
X182760952Y-105505238D01*
X182808571Y-105600476D01*
X182856190Y-105648095D01*
X182951429Y-105695714D01*
X183141905Y-105695714D01*
X183237143Y-105648095D01*
X183284762Y-105600476D01*
X183332381Y-105505238D01*
X183332381Y-105314761D01*
X183284762Y-105219523D01*
X183237143Y-105171904D01*
X183141905Y-105124285D01*
X182951429Y-105124285D01*
X182856190Y-105171904D01*
X182808571Y-105219523D01*
X182760952Y-105314761D01*
X184872381Y-105743333D02*
X184872381Y-105076666D01*
X185872381Y-105505238D01*
X187412381Y-105219523D02*
X187412381Y-105410000D01*
X187460000Y-105505238D01*
X187507619Y-105552857D01*
X187650476Y-105648095D01*
X187840952Y-105695714D01*
X188221905Y-105695714D01*
X188317143Y-105648095D01*
X188364762Y-105600476D01*
X188412381Y-105505238D01*
X188412381Y-105314761D01*
X188364762Y-105219523D01*
X188317143Y-105171904D01*
X188221905Y-105124285D01*
X187983810Y-105124285D01*
X187888571Y-105171904D01*
X187840952Y-105219523D01*
X187793333Y-105314761D01*
X187793333Y-105505238D01*
X187840952Y-105600476D01*
X187888571Y-105648095D01*
X187983810Y-105695714D01*
X189952381Y-105171904D02*
X189952381Y-105648095D01*
X190428571Y-105695714D01*
X190380952Y-105648095D01*
X190333333Y-105552857D01*
X190333333Y-105314761D01*
X190380952Y-105219523D01*
X190428571Y-105171904D01*
X190523810Y-105124285D01*
X190761905Y-105124285D01*
X190857143Y-105171904D01*
X190904762Y-105219523D01*
X190952381Y-105314761D01*
X190952381Y-105552857D01*
X190904762Y-105648095D01*
X190857143Y-105695714D01*
X192825714Y-105219523D02*
X193492381Y-105219523D01*
X192444762Y-105457619D02*
X193159048Y-105695714D01*
X193159048Y-105076666D01*
X195032381Y-105743333D02*
X195032381Y-105124285D01*
X195413333Y-105457619D01*
X195413333Y-105314761D01*
X195460952Y-105219523D01*
X195508571Y-105171904D01*
X195603810Y-105124285D01*
X195841905Y-105124285D01*
X195937143Y-105171904D01*
X195984762Y-105219523D01*
X196032381Y-105314761D01*
X196032381Y-105600476D01*
X195984762Y-105695714D01*
X195937143Y-105743333D01*
X197667619Y-105695714D02*
X197620000Y-105648095D01*
X197572381Y-105552857D01*
X197572381Y-105314761D01*
X197620000Y-105219523D01*
X197667619Y-105171904D01*
X197762857Y-105124285D01*
X197858095Y-105124285D01*
X198000952Y-105171904D01*
X198572381Y-105743333D01*
X198572381Y-105124285D01*
X200160000Y-106052857D02*
X200112381Y-106148095D01*
X200112381Y-106290952D01*
X200160000Y-106433810D01*
X200255238Y-106529048D01*
X200350476Y-106576667D01*
X200540952Y-106624286D01*
X200683810Y-106624286D01*
X200874286Y-106576667D01*
X200969524Y-106529048D01*
X201064762Y-106433810D01*
X201112381Y-106290952D01*
X201112381Y-106195714D01*
X201064762Y-106052857D01*
X201017143Y-106005238D01*
X200683810Y-106005238D01*
X200683810Y-106195714D01*
X200445714Y-105576667D02*
X201112381Y-105576667D01*
X200540952Y-105576667D02*
X200493333Y-105529048D01*
X200445714Y-105433810D01*
X200445714Y-105290952D01*
X200493333Y-105195714D01*
X200588571Y-105148095D01*
X201112381Y-105148095D01*
X201112381Y-104243333D02*
X200112381Y-104243333D01*
X201064762Y-104243333D02*
X201112381Y-104338571D01*
X201112381Y-104529048D01*
X201064762Y-104624286D01*
X201017143Y-104671905D01*
X200921905Y-104719524D01*
X200636190Y-104719524D01*
X200540952Y-104671905D01*
X200493333Y-104624286D01*
X200445714Y-104529048D01*
X200445714Y-104338571D01*
X200493333Y-104243333D01*
X203652381Y-105957619D02*
X203176190Y-106290953D01*
X203652381Y-106529048D02*
X202652381Y-106529048D01*
X202652381Y-106148095D01*
X202700000Y-106052857D01*
X202747619Y-106005238D01*
X202842857Y-105957619D01*
X202985714Y-105957619D01*
X203080952Y-106005238D01*
X203128571Y-106052857D01*
X203176190Y-106148095D01*
X203176190Y-106529048D01*
X203604762Y-105576667D02*
X203652381Y-105433810D01*
X203652381Y-105195714D01*
X203604762Y-105100476D01*
X203557143Y-105052857D01*
X203461905Y-105005238D01*
X203366667Y-105005238D01*
X203271429Y-105052857D01*
X203223810Y-105100476D01*
X203176190Y-105195714D01*
X203128571Y-105386191D01*
X203080952Y-105481429D01*
X203033333Y-105529048D01*
X202938095Y-105576667D01*
X202842857Y-105576667D01*
X202747619Y-105529048D01*
X202700000Y-105481429D01*
X202652381Y-105386191D01*
X202652381Y-105148095D01*
X202700000Y-105005238D01*
X202652381Y-104719524D02*
X202652381Y-104148095D01*
X203652381Y-104433810D02*
X202652381Y-104433810D01*
X206192381Y-106052857D02*
X205716190Y-106386191D01*
X206192381Y-106624286D02*
X205192381Y-106624286D01*
X205192381Y-106243333D01*
X205240000Y-106148095D01*
X205287619Y-106100476D01*
X205382857Y-106052857D01*
X205525714Y-106052857D01*
X205620952Y-106100476D01*
X205668571Y-106148095D01*
X205716190Y-106243333D01*
X205716190Y-106624286D01*
X205192381Y-105719524D02*
X206192381Y-105052857D01*
X205192381Y-105052857D02*
X206192381Y-105719524D01*
X206192381Y-104148095D02*
X206192381Y-104719524D01*
X206192381Y-104433810D02*
X205192381Y-104433810D01*
X205335238Y-104529048D01*
X205430476Y-104624286D01*
X205478095Y-104719524D01*
X207732381Y-106648095D02*
X207732381Y-106076666D01*
X208732381Y-106362381D02*
X207732381Y-106362381D01*
X207732381Y-105838571D02*
X208732381Y-105171904D01*
X207732381Y-105171904D02*
X208732381Y-105838571D01*
X207732381Y-104600476D02*
X207732381Y-104505237D01*
X207780000Y-104409999D01*
X207827619Y-104362380D01*
X207922857Y-104314761D01*
X208113333Y-104267142D01*
X208351429Y-104267142D01*
X208541905Y-104314761D01*
X208637143Y-104362380D01*
X208684762Y-104409999D01*
X208732381Y-104505237D01*
X208732381Y-104600476D01*
X208684762Y-104695714D01*
X208637143Y-104743333D01*
X208541905Y-104790952D01*
X208351429Y-104838571D01*
X208113333Y-104838571D01*
X207922857Y-104790952D01*
X207827619Y-104743333D01*
X207780000Y-104695714D01*
X207732381Y-104600476D01*
X188412381Y-125920476D02*
X188412381Y-126491905D01*
X188412381Y-126206191D02*
X187412381Y-126206191D01*
X187555238Y-126301429D01*
X187650476Y-126396667D01*
X187698095Y-126491905D01*
X187412381Y-125587143D02*
X187412381Y-124968095D01*
X187793333Y-125301429D01*
X187793333Y-125158571D01*
X187840952Y-125063333D01*
X187888571Y-125015714D01*
X187983810Y-124968095D01*
X188221905Y-124968095D01*
X188317143Y-125015714D01*
X188364762Y-125063333D01*
X188412381Y-125158571D01*
X188412381Y-125444286D01*
X188364762Y-125539524D01*
X188317143Y-125587143D01*
X208732381Y-126420476D02*
X208256190Y-126753810D01*
X208732381Y-126991905D02*
X207732381Y-126991905D01*
X207732381Y-126610952D01*
X207780000Y-126515714D01*
X207827619Y-126468095D01*
X207922857Y-126420476D01*
X208065714Y-126420476D01*
X208160952Y-126468095D01*
X208208571Y-126515714D01*
X208256190Y-126610952D01*
X208256190Y-126991905D01*
X208446667Y-126039524D02*
X208446667Y-125563333D01*
X208732381Y-126134762D02*
X207732381Y-125801429D01*
X208732381Y-125468095D01*
X207732381Y-125230000D02*
X208732381Y-124991905D01*
X208018095Y-124801428D01*
X208732381Y-124610952D01*
X207732381Y-124372857D01*
X205240000Y-126491904D02*
X205192381Y-126587142D01*
X205192381Y-126729999D01*
X205240000Y-126872857D01*
X205335238Y-126968095D01*
X205430476Y-127015714D01*
X205620952Y-127063333D01*
X205763810Y-127063333D01*
X205954286Y-127015714D01*
X206049524Y-126968095D01*
X206144762Y-126872857D01*
X206192381Y-126729999D01*
X206192381Y-126634761D01*
X206144762Y-126491904D01*
X206097143Y-126444285D01*
X205763810Y-126444285D01*
X205763810Y-126634761D01*
X206192381Y-126015714D02*
X205192381Y-126015714D01*
X206192381Y-125444285D01*
X205192381Y-125444285D01*
X206192381Y-124968095D02*
X205192381Y-124968095D01*
X205192381Y-124730000D01*
X205240000Y-124587142D01*
X205335238Y-124491904D01*
X205430476Y-124444285D01*
X205620952Y-124396666D01*
X205763810Y-124396666D01*
X205954286Y-124444285D01*
X206049524Y-124491904D01*
X206144762Y-124587142D01*
X206192381Y-124730000D01*
X206192381Y-124968095D01*
X203652381Y-126277619D02*
X203176190Y-126610953D01*
X203652381Y-126849048D02*
X202652381Y-126849048D01*
X202652381Y-126468095D01*
X202700000Y-126372857D01*
X202747619Y-126325238D01*
X202842857Y-126277619D01*
X202985714Y-126277619D01*
X203080952Y-126325238D01*
X203128571Y-126372857D01*
X203176190Y-126468095D01*
X203176190Y-126849048D01*
X203604762Y-125896667D02*
X203652381Y-125753810D01*
X203652381Y-125515714D01*
X203604762Y-125420476D01*
X203557143Y-125372857D01*
X203461905Y-125325238D01*
X203366667Y-125325238D01*
X203271429Y-125372857D01*
X203223810Y-125420476D01*
X203176190Y-125515714D01*
X203128571Y-125706191D01*
X203080952Y-125801429D01*
X203033333Y-125849048D01*
X202938095Y-125896667D01*
X202842857Y-125896667D01*
X202747619Y-125849048D01*
X202700000Y-125801429D01*
X202652381Y-125706191D01*
X202652381Y-125468095D01*
X202700000Y-125325238D01*
X202652381Y-125039524D02*
X202652381Y-124468095D01*
X203652381Y-124753810D02*
X202652381Y-124753810D01*
X200112381Y-127063333D02*
X201112381Y-126730000D01*
X200112381Y-126396666D01*
X201017143Y-125491904D02*
X201064762Y-125539523D01*
X201112381Y-125682380D01*
X201112381Y-125777618D01*
X201064762Y-125920476D01*
X200969524Y-126015714D01*
X200874286Y-126063333D01*
X200683810Y-126110952D01*
X200540952Y-126110952D01*
X200350476Y-126063333D01*
X200255238Y-126015714D01*
X200160000Y-125920476D01*
X200112381Y-125777618D01*
X200112381Y-125682380D01*
X200160000Y-125539523D01*
X200207619Y-125491904D01*
X201017143Y-124491904D02*
X201064762Y-124539523D01*
X201112381Y-124682380D01*
X201112381Y-124777618D01*
X201064762Y-124920476D01*
X200969524Y-125015714D01*
X200874286Y-125063333D01*
X200683810Y-125110952D01*
X200540952Y-125110952D01*
X200350476Y-125063333D01*
X200255238Y-125015714D01*
X200160000Y-124920476D01*
X200112381Y-124777618D01*
X200112381Y-124682380D01*
X200160000Y-124539523D01*
X200207619Y-124491904D01*
X198286667Y-126444286D02*
X198286667Y-125968095D01*
X198572381Y-126539524D02*
X197572381Y-126206191D01*
X198572381Y-125872857D01*
X197572381Y-125634762D02*
X197572381Y-125015714D01*
X197953333Y-125349048D01*
X197953333Y-125206190D01*
X198000952Y-125110952D01*
X198048571Y-125063333D01*
X198143810Y-125015714D01*
X198381905Y-125015714D01*
X198477143Y-125063333D01*
X198524762Y-125110952D01*
X198572381Y-125206190D01*
X198572381Y-125491905D01*
X198524762Y-125587143D01*
X198477143Y-125634762D01*
X195746667Y-126444286D02*
X195746667Y-125968095D01*
X196032381Y-126539524D02*
X195032381Y-126206191D01*
X196032381Y-125872857D01*
X195127619Y-125587143D02*
X195080000Y-125539524D01*
X195032381Y-125444286D01*
X195032381Y-125206190D01*
X195080000Y-125110952D01*
X195127619Y-125063333D01*
X195222857Y-125015714D01*
X195318095Y-125015714D01*
X195460952Y-125063333D01*
X196032381Y-125634762D01*
X196032381Y-125015714D01*
X193206667Y-126444286D02*
X193206667Y-125968095D01*
X193492381Y-126539524D02*
X192492381Y-126206191D01*
X193492381Y-125872857D01*
X193492381Y-125015714D02*
X193492381Y-125587143D01*
X193492381Y-125301429D02*
X192492381Y-125301429D01*
X192635238Y-125396667D01*
X192730476Y-125491905D01*
X192778095Y-125587143D01*
X190666667Y-126444286D02*
X190666667Y-125968095D01*
X190952381Y-126539524D02*
X189952381Y-126206191D01*
X190952381Y-125872857D01*
X189952381Y-125349048D02*
X189952381Y-125253809D01*
X190000000Y-125158571D01*
X190047619Y-125110952D01*
X190142857Y-125063333D01*
X190333333Y-125015714D01*
X190571429Y-125015714D01*
X190761905Y-125063333D01*
X190857143Y-125110952D01*
X190904762Y-125158571D01*
X190952381Y-125253809D01*
X190952381Y-125349048D01*
X190904762Y-125444286D01*
X190857143Y-125491905D01*
X190761905Y-125539524D01*
X190571429Y-125587143D01*
X190333333Y-125587143D01*
X190142857Y-125539524D01*
X190047619Y-125491905D01*
X190000000Y-125444286D01*
X189952381Y-125349048D01*
X185872381Y-125920476D02*
X185872381Y-126491905D01*
X185872381Y-126206191D02*
X184872381Y-126206191D01*
X185015238Y-126301429D01*
X185110476Y-126396667D01*
X185158095Y-126491905D01*
X184967619Y-125539524D02*
X184920000Y-125491905D01*
X184872381Y-125396667D01*
X184872381Y-125158571D01*
X184920000Y-125063333D01*
X184967619Y-125015714D01*
X185062857Y-124968095D01*
X185158095Y-124968095D01*
X185300952Y-125015714D01*
X185872381Y-125587143D01*
X185872381Y-124968095D01*
X183332381Y-125920476D02*
X183332381Y-126491905D01*
X183332381Y-126206191D02*
X182332381Y-126206191D01*
X182475238Y-126301429D01*
X182570476Y-126396667D01*
X182618095Y-126491905D01*
X183332381Y-124968095D02*
X183332381Y-125539524D01*
X183332381Y-125253810D02*
X182332381Y-125253810D01*
X182475238Y-125349048D01*
X182570476Y-125444286D01*
X182618095Y-125539524D01*
X180792381Y-125920476D02*
X180792381Y-126491905D01*
X180792381Y-126206191D02*
X179792381Y-126206191D01*
X179935238Y-126301429D01*
X180030476Y-126396667D01*
X180078095Y-126491905D01*
X179792381Y-125301429D02*
X179792381Y-125206190D01*
X179840000Y-125110952D01*
X179887619Y-125063333D01*
X179982857Y-125015714D01*
X180173333Y-124968095D01*
X180411429Y-124968095D01*
X180601905Y-125015714D01*
X180697143Y-125063333D01*
X180744762Y-125110952D01*
X180792381Y-125206190D01*
X180792381Y-125301429D01*
X180744762Y-125396667D01*
X180697143Y-125444286D01*
X180601905Y-125491905D01*
X180411429Y-125539524D01*
X180173333Y-125539524D01*
X179982857Y-125491905D01*
X179887619Y-125444286D01*
X179840000Y-125396667D01*
X179792381Y-125301429D01*
X184872381Y-136651905D02*
X185681905Y-136651905D01*
X185777143Y-136604286D01*
X185824762Y-136556667D01*
X185872381Y-136461429D01*
X185872381Y-136270952D01*
X185824762Y-136175714D01*
X185777143Y-136128095D01*
X185681905Y-136080476D01*
X184872381Y-136080476D01*
X185872381Y-135080476D02*
X185872381Y-135651905D01*
X185872381Y-135366191D02*
X184872381Y-135366191D01*
X185015238Y-135461429D01*
X185110476Y-135556667D01*
X185158095Y-135651905D01*
X213526667Y-139144286D02*
X213526667Y-138668095D01*
X213812381Y-139239524D02*
X212812381Y-138906191D01*
X213812381Y-138572857D01*
X212812381Y-138334762D02*
X212812381Y-137715714D01*
X213193333Y-138049048D01*
X213193333Y-137906190D01*
X213240952Y-137810952D01*
X213288571Y-137763333D01*
X213383810Y-137715714D01*
X213621905Y-137715714D01*
X213717143Y-137763333D01*
X213764762Y-137810952D01*
X213812381Y-137906190D01*
X213812381Y-138191905D01*
X213764762Y-138287143D01*
X213717143Y-138334762D01*
X210986667Y-139144286D02*
X210986667Y-138668095D01*
X211272381Y-139239524D02*
X210272381Y-138906191D01*
X211272381Y-138572857D01*
X210367619Y-138287143D02*
X210320000Y-138239524D01*
X210272381Y-138144286D01*
X210272381Y-137906190D01*
X210320000Y-137810952D01*
X210367619Y-137763333D01*
X210462857Y-137715714D01*
X210558095Y-137715714D01*
X210700952Y-137763333D01*
X211272381Y-138334762D01*
X211272381Y-137715714D01*
X208446667Y-139144286D02*
X208446667Y-138668095D01*
X208732381Y-139239524D02*
X207732381Y-138906191D01*
X208732381Y-138572857D01*
X208732381Y-137715714D02*
X208732381Y-138287143D01*
X208732381Y-138001429D02*
X207732381Y-138001429D01*
X207875238Y-138096667D01*
X207970476Y-138191905D01*
X208018095Y-138287143D01*
X205906667Y-139144286D02*
X205906667Y-138668095D01*
X206192381Y-139239524D02*
X205192381Y-138906191D01*
X206192381Y-138572857D01*
X205192381Y-138049048D02*
X205192381Y-137953809D01*
X205240000Y-137858571D01*
X205287619Y-137810952D01*
X205382857Y-137763333D01*
X205573333Y-137715714D01*
X205811429Y-137715714D01*
X206001905Y-137763333D01*
X206097143Y-137810952D01*
X206144762Y-137858571D01*
X206192381Y-137953809D01*
X206192381Y-138049048D01*
X206144762Y-138144286D01*
X206097143Y-138191905D01*
X206001905Y-138239524D01*
X205811429Y-138287143D01*
X205573333Y-138287143D01*
X205382857Y-138239524D01*
X205287619Y-138191905D01*
X205240000Y-138144286D01*
X205192381Y-138049048D01*
X203366667Y-139953810D02*
X203366667Y-139477619D01*
X203652381Y-140049048D02*
X202652381Y-139715715D01*
X203652381Y-139382381D01*
X203652381Y-138906191D02*
X203604762Y-139001429D01*
X203509524Y-139049048D01*
X202652381Y-139049048D01*
X203604762Y-138144285D02*
X203652381Y-138239523D01*
X203652381Y-138430000D01*
X203604762Y-138525238D01*
X203509524Y-138572857D01*
X203128571Y-138572857D01*
X203033333Y-138525238D01*
X202985714Y-138430000D01*
X202985714Y-138239523D01*
X203033333Y-138144285D01*
X203128571Y-138096666D01*
X203223810Y-138096666D01*
X203319048Y-138572857D01*
X203652381Y-137668095D02*
X202985714Y-137668095D01*
X203176190Y-137668095D02*
X203080952Y-137620476D01*
X203033333Y-137572857D01*
X202985714Y-137477619D01*
X202985714Y-137382380D01*
X202985714Y-137191904D02*
X202985714Y-136810952D01*
X202652381Y-137049047D02*
X203509524Y-137049047D01*
X203604762Y-137001428D01*
X203652381Y-136906190D01*
X203652381Y-136810952D01*
X200826667Y-140168095D02*
X200826667Y-139691904D01*
X201112381Y-140263333D02*
X200112381Y-139930000D01*
X201112381Y-139596666D01*
X201112381Y-139263333D02*
X200112381Y-139263333D01*
X200112381Y-139025238D01*
X200160000Y-138882380D01*
X200255238Y-138787142D01*
X200350476Y-138739523D01*
X200540952Y-138691904D01*
X200683810Y-138691904D01*
X200874286Y-138739523D01*
X200969524Y-138787142D01*
X201064762Y-138882380D01*
X201112381Y-139025238D01*
X201112381Y-139263333D01*
X201112381Y-138263333D02*
X200112381Y-138263333D01*
X200112381Y-138025238D01*
X200160000Y-137882380D01*
X200255238Y-137787142D01*
X200350476Y-137739523D01*
X200540952Y-137691904D01*
X200683810Y-137691904D01*
X200874286Y-137739523D01*
X200969524Y-137787142D01*
X201064762Y-137882380D01*
X201112381Y-138025238D01*
X201112381Y-138263333D01*
X201112381Y-136691904D02*
X200636190Y-137025238D01*
X201112381Y-137263333D02*
X200112381Y-137263333D01*
X200112381Y-136882380D01*
X200160000Y-136787142D01*
X200207619Y-136739523D01*
X200302857Y-136691904D01*
X200445714Y-136691904D01*
X200540952Y-136739523D01*
X200588571Y-136787142D01*
X200636190Y-136882380D01*
X200636190Y-137263333D01*
X198524762Y-139644286D02*
X198572381Y-139501429D01*
X198572381Y-139263333D01*
X198524762Y-139168095D01*
X198477143Y-139120476D01*
X198381905Y-139072857D01*
X198286667Y-139072857D01*
X198191429Y-139120476D01*
X198143810Y-139168095D01*
X198096190Y-139263333D01*
X198048571Y-139453810D01*
X198000952Y-139549048D01*
X197953333Y-139596667D01*
X197858095Y-139644286D01*
X197762857Y-139644286D01*
X197667619Y-139596667D01*
X197620000Y-139549048D01*
X197572381Y-139453810D01*
X197572381Y-139215714D01*
X197620000Y-139072857D01*
X198572381Y-138644286D02*
X197572381Y-138644286D01*
X197572381Y-138406191D01*
X197620000Y-138263333D01*
X197715238Y-138168095D01*
X197810476Y-138120476D01*
X198000952Y-138072857D01*
X198143810Y-138072857D01*
X198334286Y-138120476D01*
X198429524Y-138168095D01*
X198524762Y-138263333D01*
X198572381Y-138406191D01*
X198572381Y-138644286D01*
X198286667Y-137691905D02*
X198286667Y-137215714D01*
X198572381Y-137787143D02*
X197572381Y-137453810D01*
X198572381Y-137120476D01*
X195984762Y-139477619D02*
X196032381Y-139334762D01*
X196032381Y-139096666D01*
X195984762Y-139001428D01*
X195937143Y-138953809D01*
X195841905Y-138906190D01*
X195746667Y-138906190D01*
X195651429Y-138953809D01*
X195603810Y-139001428D01*
X195556190Y-139096666D01*
X195508571Y-139287143D01*
X195460952Y-139382381D01*
X195413333Y-139430000D01*
X195318095Y-139477619D01*
X195222857Y-139477619D01*
X195127619Y-139430000D01*
X195080000Y-139382381D01*
X195032381Y-139287143D01*
X195032381Y-139049047D01*
X195080000Y-138906190D01*
X195937143Y-137906190D02*
X195984762Y-137953809D01*
X196032381Y-138096666D01*
X196032381Y-138191904D01*
X195984762Y-138334762D01*
X195889524Y-138430000D01*
X195794286Y-138477619D01*
X195603810Y-138525238D01*
X195460952Y-138525238D01*
X195270476Y-138477619D01*
X195175238Y-138430000D01*
X195080000Y-138334762D01*
X195032381Y-138191904D01*
X195032381Y-138096666D01*
X195080000Y-137953809D01*
X195127619Y-137906190D01*
X196032381Y-137334762D02*
X195984762Y-137430000D01*
X195889524Y-137477619D01*
X195032381Y-137477619D01*
X192540000Y-138168095D02*
X192492381Y-138263333D01*
X192492381Y-138406190D01*
X192540000Y-138549048D01*
X192635238Y-138644286D01*
X192730476Y-138691905D01*
X192920952Y-138739524D01*
X193063810Y-138739524D01*
X193254286Y-138691905D01*
X193349524Y-138644286D01*
X193444762Y-138549048D01*
X193492381Y-138406190D01*
X193492381Y-138310952D01*
X193444762Y-138168095D01*
X193397143Y-138120476D01*
X193063810Y-138120476D01*
X193063810Y-138310952D01*
X189952381Y-138763333D02*
X190952381Y-138430000D01*
X189952381Y-138096666D01*
M02*
