G04 #@! TF.FileFunction,Legend,Bot*
%FSLAX46Y46*%
G04 Gerber Fmt 4.6, Leading zero omitted, Abs format (unit mm)*
G04 Created by KiCad (PCBNEW 4.0.5) date 04/29/17 21:11:23*
%MOMM*%
%LPD*%
G01*
G04 APERTURE LIST*
%ADD10C,0.100000*%
%ADD11C,0.300000*%
%ADD12C,0.175000*%
G04 APERTURE END LIST*
D10*
D11*
X195432856Y-120058571D02*
X195932856Y-119344286D01*
X196289999Y-120058571D02*
X196289999Y-118558571D01*
X195718571Y-118558571D01*
X195575713Y-118630000D01*
X195504285Y-118701429D01*
X195432856Y-118844286D01*
X195432856Y-119058571D01*
X195504285Y-119201429D01*
X195575713Y-119272857D01*
X195718571Y-119344286D01*
X196289999Y-119344286D01*
X194218571Y-119987143D02*
X194361428Y-120058571D01*
X194647142Y-120058571D01*
X194789999Y-119987143D01*
X194861428Y-119844286D01*
X194861428Y-119272857D01*
X194789999Y-119130000D01*
X194647142Y-119058571D01*
X194361428Y-119058571D01*
X194218571Y-119130000D01*
X194147142Y-119272857D01*
X194147142Y-119415714D01*
X194861428Y-119558571D01*
X193647142Y-119058571D02*
X193289999Y-120058571D01*
X192932857Y-119058571D01*
X192361428Y-119915714D02*
X192290000Y-119987143D01*
X192361428Y-120058571D01*
X192432857Y-119987143D01*
X192361428Y-119915714D01*
X192361428Y-120058571D01*
X190575714Y-118701429D02*
X190504285Y-118630000D01*
X190361428Y-118558571D01*
X190004285Y-118558571D01*
X189861428Y-118630000D01*
X189789999Y-118701429D01*
X189718571Y-118844286D01*
X189718571Y-118987143D01*
X189789999Y-119201429D01*
X190647142Y-120058571D01*
X189718571Y-120058571D01*
D12*
X203099997Y-146620667D02*
X203099997Y-145920667D01*
X202799997Y-146620667D02*
X202799997Y-146254000D01*
X202833331Y-146187333D01*
X202899997Y-146154000D01*
X202999997Y-146154000D01*
X203066664Y-146187333D01*
X203099997Y-146220667D01*
X202566664Y-146154000D02*
X202299998Y-146154000D01*
X202466664Y-145920667D02*
X202466664Y-146520667D01*
X202433331Y-146587333D01*
X202366664Y-146620667D01*
X202299998Y-146620667D01*
X202166664Y-146154000D02*
X201899998Y-146154000D01*
X202066664Y-145920667D02*
X202066664Y-146520667D01*
X202033331Y-146587333D01*
X201966664Y-146620667D01*
X201899998Y-146620667D01*
X201666664Y-146154000D02*
X201666664Y-146854000D01*
X201666664Y-146187333D02*
X201599998Y-146154000D01*
X201466664Y-146154000D01*
X201399998Y-146187333D01*
X201366664Y-146220667D01*
X201333331Y-146287333D01*
X201333331Y-146487333D01*
X201366664Y-146554000D01*
X201399998Y-146587333D01*
X201466664Y-146620667D01*
X201599998Y-146620667D01*
X201666664Y-146587333D01*
X201033331Y-146554000D02*
X200999998Y-146587333D01*
X201033331Y-146620667D01*
X201066665Y-146587333D01*
X201033331Y-146554000D01*
X201033331Y-146620667D01*
X201033331Y-146187333D02*
X200999998Y-146220667D01*
X201033331Y-146254000D01*
X201066665Y-146220667D01*
X201033331Y-146187333D01*
X201033331Y-146254000D01*
X200199998Y-145887333D02*
X200799998Y-146787333D01*
X199466665Y-145887333D02*
X200066665Y-146787333D01*
X199266666Y-146587333D02*
X199199999Y-146620667D01*
X199066666Y-146620667D01*
X198999999Y-146587333D01*
X198966666Y-146520667D01*
X198966666Y-146487333D01*
X198999999Y-146420667D01*
X199066666Y-146387333D01*
X199166666Y-146387333D01*
X199233332Y-146354000D01*
X199266666Y-146287333D01*
X199266666Y-146254000D01*
X199233332Y-146187333D01*
X199166666Y-146154000D01*
X199066666Y-146154000D01*
X198999999Y-146187333D01*
X198366665Y-146154000D02*
X198366665Y-146620667D01*
X198666665Y-146154000D02*
X198666665Y-146520667D01*
X198633332Y-146587333D01*
X198566665Y-146620667D01*
X198466665Y-146620667D01*
X198399999Y-146587333D01*
X198366665Y-146554000D01*
X198033332Y-146620667D02*
X198033332Y-145920667D01*
X198033332Y-146187333D02*
X197966666Y-146154000D01*
X197833332Y-146154000D01*
X197766666Y-146187333D01*
X197733332Y-146220667D01*
X197699999Y-146287333D01*
X197699999Y-146487333D01*
X197733332Y-146554000D01*
X197766666Y-146587333D01*
X197833332Y-146620667D01*
X197966666Y-146620667D01*
X198033332Y-146587333D01*
X197433333Y-146587333D02*
X197366666Y-146620667D01*
X197233333Y-146620667D01*
X197166666Y-146587333D01*
X197133333Y-146520667D01*
X197133333Y-146487333D01*
X197166666Y-146420667D01*
X197233333Y-146387333D01*
X197333333Y-146387333D01*
X197399999Y-146354000D01*
X197433333Y-146287333D01*
X197433333Y-146254000D01*
X197399999Y-146187333D01*
X197333333Y-146154000D01*
X197233333Y-146154000D01*
X197166666Y-146187333D01*
X196533332Y-146154000D02*
X196533332Y-146620667D01*
X196833332Y-146154000D02*
X196833332Y-146520667D01*
X196799999Y-146587333D01*
X196733332Y-146620667D01*
X196633332Y-146620667D01*
X196566666Y-146587333D01*
X196533332Y-146554000D01*
X196199999Y-146620667D02*
X196199999Y-146154000D01*
X196199999Y-146287333D02*
X196166666Y-146220667D01*
X196133333Y-146187333D01*
X196066666Y-146154000D01*
X195999999Y-146154000D01*
X195866666Y-146154000D02*
X195600000Y-146154000D01*
X195766666Y-146620667D02*
X195766666Y-146020667D01*
X195733333Y-145954000D01*
X195666666Y-145920667D01*
X195600000Y-145920667D01*
X195066666Y-146620667D02*
X195066666Y-146254000D01*
X195100000Y-146187333D01*
X195166666Y-146154000D01*
X195300000Y-146154000D01*
X195366666Y-146187333D01*
X195066666Y-146587333D02*
X195133333Y-146620667D01*
X195300000Y-146620667D01*
X195366666Y-146587333D01*
X195400000Y-146520667D01*
X195400000Y-146454000D01*
X195366666Y-146387333D01*
X195300000Y-146354000D01*
X195133333Y-146354000D01*
X195066666Y-146320667D01*
X194433333Y-146587333D02*
X194500000Y-146620667D01*
X194633333Y-146620667D01*
X194700000Y-146587333D01*
X194733333Y-146554000D01*
X194766667Y-146487333D01*
X194766667Y-146287333D01*
X194733333Y-146220667D01*
X194700000Y-146187333D01*
X194633333Y-146154000D01*
X194500000Y-146154000D01*
X194433333Y-146187333D01*
X193866667Y-146587333D02*
X193933333Y-146620667D01*
X194066667Y-146620667D01*
X194133333Y-146587333D01*
X194166667Y-146520667D01*
X194166667Y-146254000D01*
X194133333Y-146187333D01*
X194066667Y-146154000D01*
X193933333Y-146154000D01*
X193866667Y-146187333D01*
X193833333Y-146254000D01*
X193833333Y-146320667D01*
X194166667Y-146387333D01*
X193533333Y-146554000D02*
X193500000Y-146587333D01*
X193533333Y-146620667D01*
X193566667Y-146587333D01*
X193533333Y-146554000D01*
X193533333Y-146620667D01*
X193200000Y-146154000D02*
X193200000Y-146854000D01*
X193200000Y-146187333D02*
X193133334Y-146154000D01*
X193000000Y-146154000D01*
X192933334Y-146187333D01*
X192900000Y-146220667D01*
X192866667Y-146287333D01*
X192866667Y-146487333D01*
X192900000Y-146554000D01*
X192933334Y-146587333D01*
X193000000Y-146620667D01*
X193133334Y-146620667D01*
X193200000Y-146587333D01*
X192566667Y-146620667D02*
X192566667Y-145920667D01*
X192266667Y-146620667D02*
X192266667Y-146254000D01*
X192300001Y-146187333D01*
X192366667Y-146154000D01*
X192466667Y-146154000D01*
X192533334Y-146187333D01*
X192566667Y-146220667D01*
X191833334Y-146620667D02*
X191900001Y-146587333D01*
X191933334Y-146554000D01*
X191966668Y-146487333D01*
X191966668Y-146287333D01*
X191933334Y-146220667D01*
X191900001Y-146187333D01*
X191833334Y-146154000D01*
X191733334Y-146154000D01*
X191666668Y-146187333D01*
X191633334Y-146220667D01*
X191600001Y-146287333D01*
X191600001Y-146487333D01*
X191633334Y-146554000D01*
X191666668Y-146587333D01*
X191733334Y-146620667D01*
X191833334Y-146620667D01*
X191400001Y-146154000D02*
X191133335Y-146154000D01*
X191300001Y-145920667D02*
X191300001Y-146520667D01*
X191266668Y-146587333D01*
X191200001Y-146620667D01*
X191133335Y-146620667D01*
X190800001Y-146620667D02*
X190866668Y-146587333D01*
X190900001Y-146554000D01*
X190933335Y-146487333D01*
X190933335Y-146287333D01*
X190900001Y-146220667D01*
X190866668Y-146187333D01*
X190800001Y-146154000D01*
X190700001Y-146154000D01*
X190633335Y-146187333D01*
X190600001Y-146220667D01*
X190566668Y-146287333D01*
X190566668Y-146487333D01*
X190600001Y-146554000D01*
X190633335Y-146587333D01*
X190700001Y-146620667D01*
X190800001Y-146620667D01*
D11*
X193682857Y-116756571D02*
X194540000Y-116756571D01*
X194111428Y-116756571D02*
X194111428Y-115256571D01*
X194254285Y-115470857D01*
X194397143Y-115613714D01*
X194540000Y-115685143D01*
X193040000Y-116613714D02*
X192968572Y-116685143D01*
X193040000Y-116756571D01*
X193111429Y-116685143D01*
X193040000Y-116613714D01*
X193040000Y-116756571D01*
X192040000Y-115256571D02*
X191897143Y-115256571D01*
X191754286Y-115328000D01*
X191682857Y-115399429D01*
X191611428Y-115542286D01*
X191540000Y-115828000D01*
X191540000Y-116185143D01*
X191611428Y-116470857D01*
X191682857Y-116613714D01*
X191754286Y-116685143D01*
X191897143Y-116756571D01*
X192040000Y-116756571D01*
X192182857Y-116685143D01*
X192254286Y-116613714D01*
X192325714Y-116470857D01*
X192397143Y-116185143D01*
X192397143Y-115828000D01*
X192325714Y-115542286D01*
X192254286Y-115399429D01*
X192182857Y-115328000D01*
X192040000Y-115256571D01*
X200147143Y-114216571D02*
X200147143Y-112716571D01*
X199290000Y-114216571D01*
X199290000Y-112716571D01*
X198575714Y-113216571D02*
X198575714Y-114502286D01*
X198647143Y-114645143D01*
X198790000Y-114716571D01*
X198861428Y-114716571D01*
X198575714Y-112716571D02*
X198647143Y-112788000D01*
X198575714Y-112859429D01*
X198504286Y-112788000D01*
X198575714Y-112716571D01*
X198575714Y-112859429D01*
X197647142Y-114216571D02*
X197790000Y-114145143D01*
X197861428Y-114073714D01*
X197932857Y-113930857D01*
X197932857Y-113502286D01*
X197861428Y-113359429D01*
X197790000Y-113288000D01*
X197647142Y-113216571D01*
X197432857Y-113216571D01*
X197290000Y-113288000D01*
X197218571Y-113359429D01*
X197147142Y-113502286D01*
X197147142Y-113930857D01*
X197218571Y-114073714D01*
X197290000Y-114145143D01*
X197432857Y-114216571D01*
X197647142Y-114216571D01*
X196504285Y-114216571D02*
X196504285Y-113216571D01*
X196504285Y-113502286D02*
X196432857Y-113359429D01*
X196361428Y-113288000D01*
X196218571Y-113216571D01*
X196075714Y-113216571D01*
X194932857Y-114216571D02*
X194932857Y-112716571D01*
X194932857Y-114145143D02*
X195075714Y-114216571D01*
X195361428Y-114216571D01*
X195504286Y-114145143D01*
X195575714Y-114073714D01*
X195647143Y-113930857D01*
X195647143Y-113502286D01*
X195575714Y-113359429D01*
X195504286Y-113288000D01*
X195361428Y-113216571D01*
X195075714Y-113216571D01*
X194932857Y-113288000D01*
X193932857Y-112716571D02*
X193647143Y-112716571D01*
X193504285Y-112788000D01*
X193361428Y-112930857D01*
X193290000Y-113216571D01*
X193290000Y-113716571D01*
X193361428Y-114002286D01*
X193504285Y-114145143D01*
X193647143Y-114216571D01*
X193932857Y-114216571D01*
X194075714Y-114145143D01*
X194218571Y-114002286D01*
X194290000Y-113716571D01*
X194290000Y-113216571D01*
X194218571Y-112930857D01*
X194075714Y-112788000D01*
X193932857Y-112716571D01*
X192789999Y-114216571D02*
X192004285Y-113216571D01*
X192789999Y-113216571D02*
X192004285Y-114216571D01*
X190289999Y-114216571D02*
X190289999Y-112716571D01*
X189789999Y-113788000D01*
X189289999Y-112716571D01*
X189289999Y-114216571D01*
X188575713Y-114216571D02*
X188575713Y-112716571D01*
X187718570Y-114216571D02*
X188361427Y-113359429D01*
X187718570Y-112716571D02*
X188575713Y-113573714D01*
X185932856Y-114216571D02*
X185932856Y-112716571D01*
X198690857Y-111676571D02*
X198690857Y-110176571D01*
X197833714Y-111676571D01*
X197833714Y-110176571D01*
X197119428Y-110676571D02*
X197119428Y-111962286D01*
X197190857Y-112105143D01*
X197333714Y-112176571D01*
X197405142Y-112176571D01*
X197119428Y-110176571D02*
X197190857Y-110248000D01*
X197119428Y-110319429D01*
X197048000Y-110248000D01*
X197119428Y-110176571D01*
X197119428Y-110319429D01*
X196190856Y-111676571D02*
X196333714Y-111605143D01*
X196405142Y-111533714D01*
X196476571Y-111390857D01*
X196476571Y-110962286D01*
X196405142Y-110819429D01*
X196333714Y-110748000D01*
X196190856Y-110676571D01*
X195976571Y-110676571D01*
X195833714Y-110748000D01*
X195762285Y-110819429D01*
X195690856Y-110962286D01*
X195690856Y-111390857D01*
X195762285Y-111533714D01*
X195833714Y-111605143D01*
X195976571Y-111676571D01*
X196190856Y-111676571D01*
X195047999Y-111676571D02*
X195047999Y-110676571D01*
X195047999Y-110962286D02*
X194976571Y-110819429D01*
X194905142Y-110748000D01*
X194762285Y-110676571D01*
X194619428Y-110676571D01*
X193476571Y-111676571D02*
X193476571Y-110176571D01*
X193476571Y-111605143D02*
X193619428Y-111676571D01*
X193905142Y-111676571D01*
X194048000Y-111605143D01*
X194119428Y-111533714D01*
X194190857Y-111390857D01*
X194190857Y-110962286D01*
X194119428Y-110819429D01*
X194048000Y-110748000D01*
X193905142Y-110676571D01*
X193619428Y-110676571D01*
X193476571Y-110748000D01*
X192976571Y-110176571D02*
X192119428Y-110176571D01*
X192547999Y-111676571D02*
X192547999Y-110176571D01*
X191048000Y-111605143D02*
X191190857Y-111676571D01*
X191476571Y-111676571D01*
X191619428Y-111605143D01*
X191690857Y-111462286D01*
X191690857Y-110890857D01*
X191619428Y-110748000D01*
X191476571Y-110676571D01*
X191190857Y-110676571D01*
X191048000Y-110748000D01*
X190976571Y-110890857D01*
X190976571Y-111033714D01*
X191690857Y-111176571D01*
X189690857Y-111605143D02*
X189833714Y-111676571D01*
X190119428Y-111676571D01*
X190262286Y-111605143D01*
X190333714Y-111533714D01*
X190405143Y-111390857D01*
X190405143Y-110962286D01*
X190333714Y-110819429D01*
X190262286Y-110748000D01*
X190119428Y-110676571D01*
X189833714Y-110676571D01*
X189690857Y-110748000D01*
X189048000Y-111676571D02*
X189048000Y-110176571D01*
X188405143Y-111676571D02*
X188405143Y-110890857D01*
X188476572Y-110748000D01*
X188619429Y-110676571D01*
X188833714Y-110676571D01*
X188976572Y-110748000D01*
X189048000Y-110819429D01*
M02*
